<svg width="125" height="125" viewBox="0 0 125 125" fill="none" xmlns="http://www.w3.org/2000/svg">
<path d="M62.5 3.90625C30.1396 3.90625 3.90625 30.1396 3.90625 62.5C3.90625 94.8604 30.1396 121.094 62.5 121.094C94.8604 121.094 121.094 94.8604 121.094 62.5C121.094 30.1396 94.8604 3.90625 62.5 3.90625ZM98.4077 98.4077C89.504 107.285 77.6142 112.529 65.0551 113.119C52.496 113.708 40.1672 109.601 30.471 101.597C20.7749 93.5929 14.4059 82.2657 12.6052 69.8224C10.8045 57.379 13.7009 44.7109 20.7303 34.2866C27.7596 23.8622 38.4182 16.4282 50.6292 13.4332C62.8402 10.4381 75.7289 12.0966 86.784 18.0854C97.839 24.0743 106.268 33.9644 110.43 45.8288C114.591 57.6931 114.186 70.6818 109.294 82.2639C106.744 88.299 103.047 93.7816 98.4077 98.4077Z" fill="#FCE247"/>
<path d="M37.1094 48.8281H46.875V58.5938H37.1094V48.8281ZM78.125 48.8281H87.8906V58.5938H78.125V48.8281ZM62.5 68.3594C55.766 68.3594 49.3078 71.0345 44.5461 75.7961C39.7845 80.5578 37.1094 87.016 37.1094 93.75H87.8906C87.8906 87.016 85.2155 80.5578 80.4539 75.7961C75.6922 71.0345 69.234 68.3594 62.5 68.3594Z" fill="#FCE247"/>
</svg>
