<svg width="125" height="115" viewBox="0 0 125 115" fill="none" xmlns="http://www.w3.org/2000/svg">
<path d="M77.9402 86.9323C61.3626 94.5386 41.4229 89.9272 33.3676 76.6399C31.4576 73.5223 30.3194 69.9792 30.051 66.3151C29.7826 62.6509 30.3919 58.9752 31.8265 55.6036C35.1557 48.0883 41.1647 42.141 48.6376 38.9647C56.6254 35.2505 65.5855 34.2908 74.1577 36.2312C78.021 36.9978 81.6956 38.5402 84.9669 40.7686C88.2381 42.9969 91.0405 45.8664 93.2103 49.2096C101.219 62.378 94.3777 79.3259 77.9402 86.9323Z" fill="#F8F8F8"/>
<path d="M90.4784 107.374H90.2683C85.8322 109.414 81.2103 111.006 76.4691 112.128L72.6167 98.9358C76.1973 98.1301 79.6868 96.9512 83.0301 95.4178H83.217C86.402 93.962 89.4236 92.161 92.2295 90.0459L102.526 100.243C98.7548 103.024 94.7186 105.413 90.4784 107.374Z" fill="#F8F8F8"/>
<path d="M41.7964 112.056C32.9751 109.939 24.7479 105.792 17.7471 99.9335L29.7483 89.7129C34.9943 94.1664 41.1913 97.3084 47.8436 98.8877L41.7964 112.056Z" fill="#F8F8F8"/>
<path d="M121.976 75.1904L106.169 72.1479C108.453 66.3786 108.989 60.046 107.71 53.9638L124.054 51.04C125.69 59.1242 124.968 67.519 121.976 75.1904Z" fill="#F8F8F8"/>
<path d="M18.8684 71.8611L2.52427 74.7607C0.899985 66.6688 1.622 58.2706 4.60234 50.5889L20.4327 53.6312C18.1516 59.4166 17.6072 65.7607 18.8684 71.8611Z" fill="#F8F8F8"/>
<path d="M96.8531 35.9941C91.6013 31.5359 85.3955 28.3935 78.7344 26.8193L84.7817 13.7227C93.6116 15.8473 101.846 20.0022 108.854 25.8686L96.8531 35.9941Z" fill="#F8F8F8"/>
<path d="M34.1849 35.875L23.8179 25.6785C27.6504 22.8362 31.7577 20.3992 36.0761 18.4056L36.5431 18.1917L36.9167 18.0253L37.2903 17.8589L37.7806 17.645H38.0607L38.6678 17.3835H38.8079L39.5551 17.0746C42.8828 15.7636 46.2913 14.6758 49.7586 13.8184L53.6813 26.9858C50.1998 27.7542 46.7986 28.8605 43.5245 30.2895C40.2211 31.8003 37.0894 33.6732 34.1849 35.875Z" fill="#F8F8F8"/>
<path d="M2.50098 74.7618L18.8451 71.862C17.5765 65.7636 18.1128 59.4193 20.3862 53.6312L4.55567 50.5887C8.48377 40.562 15.1828 31.9096 23.8417 25.6787L34.2086 35.8757C37.1057 33.6753 40.2295 31.8023 43.5247 30.2899C46.8721 28.7554 50.3603 27.5611 53.9383 26.7246L49.8988 13.6516C61.3602 10.8206 73.3204 10.8206 84.7818 13.6516L78.7346 26.7483C85.3957 28.3225 91.6014 31.4649 96.8532 35.9232L108.854 25.7976C112.732 29.086 116.066 32.9861 118.731 37.3493C121.277 41.5386 123.086 46.1474 124.078 50.969L107.734 53.8926C109.013 59.9745 108.476 66.3069 106.193 72.0759L122 75.1184C118.058 85.2229 111.297 93.9318 102.55 100.171L92.2534 89.974C89.4475 92.0891 86.4259 93.8901 83.2409 95.3458C79.8414 96.9245 76.2884 98.1355 72.6405 98.9587L76.4931 112.151C65.087 114.903 53.2004 114.846 41.8203 111.984L47.8675 98.9112C41.2049 97.3284 34.9994 94.1779 29.7489 89.7126L17.8411 99.9333C13.9636 96.6448 10.6291 92.7447 7.96464 88.3815C5.36522 84.207 3.5152 79.5954 2.50098 74.7618ZM31.8503 55.604C30.4157 58.9754 29.8064 62.6511 30.0748 66.3151C30.3432 69.9791 31.4813 73.522 33.3913 76.6396C41.4466 89.9265 61.4099 94.5377 77.8707 86.9791C94.3315 79.4206 101.219 62.3781 93.234 49.1388C91.0642 45.7957 88.262 42.9263 84.9907 40.6981C81.7195 38.4698 78.0449 36.9274 74.1816 36.1609C65.6442 34.2234 56.7194 35.1662 48.7548 38.8468C41.2309 42.0396 35.1856 48.0322 31.8503 55.604Z" fill="#0075D5"/>
<path d="M2.31376 58.8123C2.84247 55.9962 3.62402 53.2354 4.64856 50.5647L2.85086 39.0371C0.160789 46.1056 -0.64472 53.7727 0.516068 61.2605L2.33713 72.7881C1.55912 68.1638 1.5512 63.4392 2.31376 58.8123Z" fill="#8A8A8A"/>
<path d="M124.077 51.04L122.279 39.4883C121.271 34.6757 119.454 30.0763 116.909 25.8925C114.266 21.5201 110.938 17.6179 107.056 14.3408L108.854 25.8688C112.731 29.1572 116.066 33.0573 118.73 37.4205C121.276 41.6097 123.086 46.2185 124.077 51.04Z" fill="#0E4472"/>
<path d="M23.8649 25.6781L22.067 14.126C13.4016 20.3604 6.70149 29.0228 2.78076 39.0605L4.57867 50.5889C8.5068 40.5619 15.2059 31.9091 23.8649 25.6781Z" fill="#004076"/>
<path d="M108.901 25.8691L107.103 14.3412C100.089 8.4833 91.8567 4.3295 83.0303 2.19531L84.8282 13.7232C93.658 15.8479 101.893 20.0027 108.901 25.8691Z" fill="#858585"/>
<path d="M26.4804 23.8251L27.3443 23.2784C27.9747 22.8506 28.6052 22.4703 29.2589 22.0662L30.2863 21.4483L32.1775 20.3787L33.2748 19.8082C34.2088 19.3329 35.1428 18.8575 36.1234 18.4059L36.5904 18.192L36.9639 18.0256L37.3374 17.8593L37.8278 17.6453H38.108L38.7151 17.3839H38.8552L39.6023 17.0749C42.93 15.7639 46.3384 14.6762 49.8057 13.8187L47.9844 2.29102C44.5113 3.12697 41.1014 4.21517 37.7811 5.54726L37.0339 5.85626L36.4036 6.11771H36.1468L35.6564 6.35537L35.2828 6.52177L34.8859 6.68817L34.4189 6.90207L32.084 8.01919L31.5003 8.32815L30.4264 8.8986L28.5351 9.96817L27.4844 10.5862C26.8306 10.9665 26.2002 11.3705 25.5932 11.7746L24.7293 12.345C23.842 12.9392 22.9548 13.5572 22.1143 14.1752L23.912 25.7266C24.8459 25.0373 25.5932 24.4193 26.4804 23.8251Z" fill="#858585"/>
<path d="M84.7816 13.6514L82.9839 2.12339C71.5147 -0.707796 59.5469 -0.707796 48.0776 2.12339L49.8988 13.6514C61.3601 10.8204 73.3203 10.8204 84.7816 13.6514Z" fill="#0E4472"/>
<path style="mix-blend-mode:multiply" d="M17.8409 99.9336C24.8417 105.793 33.0688 109.94 41.8901 112.056L47.9375 98.9828C41.2437 97.3894 35.0126 94.2137 29.7487 89.7128C34.9948 94.1664 41.1917 97.3084 47.844 98.8877L41.7967 111.961C53.1769 114.823 65.0635 114.88 76.4696 112.127C81.2108 111.005 85.8327 109.413 90.2688 107.373H90.4788C94.719 105.413 98.7553 103.024 102.527 100.243L94.1212 91.9233L102.527 100.243C111.273 94.0034 118.034 85.2944 121.976 75.1899C124.384 69.0766 125.345 62.4723 124.781 55.911C124.217 49.3498 122.145 43.0156 118.731 37.4207C116.066 33.0575 112.732 29.1574 108.854 25.8689C101.846 20.0024 93.6116 15.8476 84.7817 13.7229C73.3203 10.8919 61.3601 10.8919 49.8987 13.7229L53.8213 26.8672L49.8987 13.6516C46.4314 14.5091 43.0229 15.5969 39.6953 16.9079L38.9481 17.2169H38.808L38.2009 17.4784H37.9208L37.4305 17.6923L37.0569 17.8587L36.6834 18.0251L36.2164 18.239C31.898 20.2328 27.7907 22.6699 23.9583 25.5124C15.2993 31.7432 8.60027 40.3958 4.67216 50.4224L20.5027 53.4649C18.2293 59.253 17.693 65.5974 18.9616 71.6958C17.693 65.5974 18.2293 59.253 20.5027 53.4649L4.67216 50.4224C1.69183 58.1046 0.96981 66.5032 2.59409 74.5956C3.57945 79.423 5.39777 84.0342 7.96442 88.2154C10.6147 92.6378 13.9499 96.5949 17.8409 99.9336ZM35.119 79.0405C43.9682 90.4496 62.4604 94.0626 77.9873 86.9556C62.3903 94.0626 43.8981 90.4496 35.0255 79.0405H35.119ZM83.2174 95.4174H83.0306C79.8403 96.8789 76.5166 98.0173 73.1074 98.8164C76.5807 97.9883 79.9667 96.8181 83.2174 95.3223C84.058 94.942 84.8518 94.538 85.5523 94.1339C84.8518 94.633 84.058 95.0371 83.2174 95.4174ZM74.2748 36.161C65.7198 34.2255 56.7785 35.1766 48.8014 38.8706C56.7428 35.1977 65.6405 34.2468 74.1581 36.161H74.2748ZM43.5245 30.29C41.8708 31.0598 40.2576 31.9166 38.6913 32.857C40.2576 31.9166 41.8708 31.0598 43.5245 30.29ZM34.185 35.8757C34.8621 35.3528 35.5627 34.8299 36.2865 34.3545C35.5627 34.8299 34.8621 35.3528 34.185 35.8757L32.247 33.9742L34.185 35.8757Z" fill="url(#paint0_linear_0_750)"/>
<path d="M7.87132 88.3815C4.05797 82.2903 1.86178 75.2963 1.49717 68.0827C1.23177 60.8429 2.68126 53.6443 5.72328 47.0946C8.77729 40.558 13.0518 34.6888 18.3083 29.8145C23.5567 24.941 29.5201 20.9312 35.9832 17.93L36.4035 17.7398L37.0805 17.4308L38.4348 16.8366C52.3676 11.1493 67.6472 9.80898 82.3303 12.986C89.6276 14.5612 96.5923 17.4423 102.9 21.4953C109.191 25.5845 114.491 31.0694 118.404 37.5395C114.38 31.1863 108.991 25.8465 102.644 21.9232C96.3617 17.9529 89.4359 15.1521 82.1902 13.6515C67.6433 10.6093 52.5366 12.0322 38.785 17.7398H38.6449L37.244 18.3103L36.4501 18.643L35.9131 18.8807H36.0298C29.6256 21.7809 23.7087 25.687 18.4951 30.4563C13.2746 35.2325 9.01608 40.9965 5.95671 47.4274C4.44782 50.6416 3.31177 54.0237 2.57126 57.5055C0.271338 68.0763 2.06072 79.1428 7.56777 88.4053L7.87132 88.3815Z" fill="#E2E2E1"/>
<defs>
<linearGradient id="paint0_linear_0_750" x1="113.69" y1="29.5038" x2="11.8276" y2="94.5836" gradientUnits="userSpaceOnUse">
<stop stop-color="white"/>
<stop offset="0.6" stop-color="#ACABA7"/>
<stop offset="1" stop-color="#F5F5F5"/>
</linearGradient>
</defs>
</svg>
