<svg width="181" height="169" viewBox="0 0 181 169" fill="none" xmlns="http://www.w3.org/2000/svg">
<path d="M95.1126 1.1668H95.4349C102.392 2.24032 109.226 4.0156 115.838 6.46641L110.309 25.5449C105.337 23.6489 100.187 22.2789 94.9392 21.4566H94.6417C89.6566 20.6745 84.6034 20.4376 79.5687 20.75L75.0073 0.132113C81.7262 -0.21816 88.4627 0.128529 95.1126 1.1668Z" fill="#F8F8F8"/>
<path d="M32.0205 14.8955L48.8285 31.2241C41.6077 36.4051 36.0599 43.6514 32.8881 52.0449L10.7998 42.4547C15.0996 31.3684 22.4722 21.7935 32.0205 14.8955Z" fill="#F8F8F8"/>
<path d="M32.2686 82.5049C35.1773 92.1308 40.2731 100.924 47.1429 108.171L29.7895 119.174C20.7212 109.519 13.938 97.8833 9.95703 85.1547L32.2686 82.5049Z" fill="#F8F8F8"/>
<path d="M107.929 132.904L112.565 153.572C105.722 153.933 98.8615 153.586 92.0878 152.537H91.9637L91.2201 152.411H90.65H90.0551L89.2864 152.285H88.8897L87.9228 152.108H87.7246L86.5843 151.881C81.5374 150.813 76.5678 149.396 71.71 147.641L77.139 128.538C82.117 130.397 87.2666 131.742 92.5093 132.551C97.6213 133.239 102.792 133.357 107.929 132.904Z" fill="#F8F8F8"/>
<path d="M10.7998 42.4541L4.05698 57.8737C1.54471 64.5171 0.177733 71.552 0.0162729 78.6688C-0.143773 86.0889 0.877632 93.4865 3.04067 100.574L9.75854 85.1546C7.59355 78.0678 6.58045 70.6686 6.7591 63.2492C6.90856 56.1311 8.27594 49.094 10.7998 42.4541Z" fill="#720100"/>
<path d="M9.75862 85.1543L3.04053 100.574C6.99557 113.315 13.7818 124.956 22.8727 134.594L29.5911 119.174C20.5229 109.519 13.7396 97.8831 9.75862 85.1543Z" fill="#858585"/>
<path d="M107.978 153.698H106.491H103.268H101.533C100.491 153.698 99.4505 153.622 98.4093 153.471L96.6489 153.294C95.1367 153.143 93.6246 152.966 92.0875 152.714H91.9635L91.2199 152.588H90.6498H90.0548L89.2862 152.462H88.8895L87.9226 152.285H87.7244L86.5841 152.058C81.5372 150.99 76.5676 149.573 71.7097 147.818L64.9912 163.237C69.8441 165.008 74.8148 166.424 79.8656 167.476L81.0062 167.703H81.2292L82.1713 167.88H82.568L83.3364 168.006H83.9313H84.5015L85.2453 168.132H85.3694C86.5841 168.309 87.8484 168.486 89.0135 168.612H89.9308L91.6908 168.763L94.8145 168.99H96.55H99.7726H101.26C102.797 168.99 104.334 168.99 105.846 168.99L112.589 153.572C111.052 153.648 109.515 153.698 107.978 153.698Z" fill="#858585"/>
<path d="M29.5165 119.175L22.7983 134.594C34.4495 147.245 48.8976 156.883 64.9425 162.708L71.6606 147.288C55.6221 141.45 41.1769 131.814 29.5165 119.175Z" fill="#720100"/>
<g style="mix-blend-mode:multiply">
<path style="mix-blend-mode:multiply" d="M6.7591 63.2492C6.90856 56.1311 8.27594 49.094 10.7998 42.4541L4.05698 57.8737C1.54471 64.5171 0.177733 71.552 0.0162729 78.6688C-0.143773 86.0889 0.877632 93.4865 3.04067 100.574L9.75854 85.1546C7.59355 78.0678 6.58045 70.6686 6.7591 63.2492Z" fill="url(#paint0_linear_0_767)"/>
<path style="mix-blend-mode:multiply" d="M71.7107 147.287C55.6722 141.449 41.2269 131.813 29.5665 119.174C20.4982 109.518 13.7148 97.883 9.73381 85.1543L3.01562 100.574C6.97072 113.314 13.7571 124.956 22.848 134.593C34.4992 147.244 48.9473 156.882 64.9922 162.707L71.7107 147.287Z" fill="url(#paint1_linear_0_767)"/>
</g>
<path d="M94.4679 35.9942C120.473 40.0574 141.05 61.6601 140.504 84.1966C140.403 89.5011 139.04 94.7014 136.531 99.3518C134.022 104.002 130.443 107.964 126.101 110.897C116.254 117.386 104.352 119.821 92.8072 117.711C80.256 115.788 68.6582 109.765 59.7611 100.55C55.6757 96.515 52.4209 91.6919 50.1863 86.3623C47.9517 81.0327 46.7821 75.3034 46.7461 69.5088C47.2667 47.048 68.6857 32.0068 94.4679 35.9942Z" fill="#F8F8F8"/>
<path d="M157.733 34.5293C166.8 44.1655 173.584 55.7843 177.565 68.4978L155.254 71.0215C152.344 61.4109 147.248 52.6347 140.379 45.4063L157.733 34.5293Z" fill="#F8F8F8"/>
<path d="M154.362 101.608L176.451 111.224C172.154 122.312 164.78 131.888 155.23 138.784L138.422 122.405C145.65 117.243 151.201 110.001 154.362 101.608Z" fill="#F8F8F8"/>
<path d="M176.45 111.225L154.362 101.609C151.209 110.02 145.657 117.28 138.421 122.455L155.229 138.834C142.71 147.85 127.889 152.97 112.565 153.572L107.929 132.903C102.78 133.248 97.6096 133.02 92.5094 132.222C87.2667 131.413 82.1172 130.069 77.1391 128.209L71.7101 147.288C55.6716 141.45 41.2265 131.814 29.5661 119.174L46.9195 108.171C40.0497 100.924 34.9539 92.1312 32.0452 82.5052L9.73353 85.155C7.56845 78.0682 6.55532 70.6689 6.73397 63.2494C6.88343 56.1313 8.25087 49.0941 10.7748 42.4542L32.8632 52.0442C36.035 43.6508 41.5829 36.4046 48.8036 31.2237L31.9956 14.8954C44.6033 5.8113 59.5456 0.679408 74.9823 0.131836L79.5437 20.7504C84.5783 20.4379 89.6315 20.6748 94.6166 21.457C99.9654 22.2827 105.216 23.6697 110.284 25.5959L115.812 6.51677C131.766 12.3317 146.129 21.9348 157.708 34.5298L140.355 45.5331C147.223 52.7616 152.32 61.5378 155.229 71.1485L177.541 68.6248C179.682 75.7171 180.695 83.1125 180.541 90.5305C180.39 97.6206 179.005 104.627 176.45 111.225ZM126.1 110.897C130.443 107.963 134.022 104.002 136.531 99.3512C139.039 94.7009 140.403 89.5005 140.504 84.196C141.049 61.6594 120.473 40.0567 94.6166 35.9935C68.76 31.9304 47.2664 47.0473 46.7458 69.5081C46.7818 75.3028 47.9514 81.0321 50.186 86.3617C52.4206 91.6913 55.6754 96.5144 59.7609 100.55C68.6169 109.734 80.1601 115.747 92.658 117.685C104.248 119.833 116.206 117.405 126.1 110.897Z" fill="#D50100"/>
<path d="M164.352 130.683C161.571 133.687 158.517 136.417 155.229 138.834L148.486 154.254C157.265 147.907 164.223 139.291 168.641 129.295L175.384 113.875C172.662 120.07 168.933 125.752 164.352 130.683Z" fill="#8A8A8A"/>
<path d="M112.565 153.57L105.822 168.989C121.148 168.399 135.973 163.278 148.487 154.252L155.23 138.833C142.711 147.849 127.889 152.969 112.565 153.57Z" fill="#760100"/>
<path style="mix-blend-mode:multiply" d="M177.491 68.4987C173.51 55.7852 166.726 44.1664 157.659 34.5301L140.305 45.5333C147.174 52.7618 152.27 61.538 155.18 71.1486C152.27 61.538 147.174 52.7618 140.305 45.5333L157.659 34.5301C146.079 21.9353 131.717 12.3322 115.763 6.51731C109.151 4.06644 102.317 2.29115 95.3599 1.21761H95.0376C88.3877 0.179314 81.6513 -0.167384 74.9325 0.182897L78.6511 16.9906L74.9325 0.182897C59.4957 0.730466 44.5535 5.86228 31.9458 14.9464C24.3001 20.4197 18.0286 27.6497 13.6397 36.0506C9.25081 44.4514 6.86795 53.7868 6.68416 63.3C6.50551 70.7194 7.51879 78.1186 9.68388 85.2055C13.6649 97.9341 20.448 109.569 29.5163 119.225C41.1767 131.864 55.6218 141.5 71.6603 147.338L77.0893 128.259L71.6603 147.364C76.5182 149.119 81.4877 150.535 86.5346 151.603L87.6749 151.831H87.8734L88.84 152.007H89.2367L90.0053 152.133H90.6003H91.1704L91.9143 152.26H92.038C98.8117 153.309 105.673 153.656 112.515 153.294C127.833 152.769 142.671 147.728 155.229 138.783L138.421 122.404C145.657 117.229 151.208 109.97 154.362 101.559C151.208 109.97 145.657 117.229 138.421 122.404L155.229 138.783C164.787 131.874 172.161 122.28 176.45 111.174C179.002 104.534 180.371 97.4833 180.491 90.3538C180.64 82.9527 179.627 75.5748 177.491 68.4987ZM140.305 79.9815C138.372 59.035 118.812 39.8551 94.4675 35.9938C118.837 39.8046 138.446 59.035 140.38 79.9815H140.305ZM94.5667 21.4575H94.8642C99.8691 22.2374 104.785 23.5224 109.54 25.2935C104.721 23.4994 99.7384 22.1975 94.666 21.407C93.3769 21.2051 92.1868 21.0537 90.8233 20.9275C92.0629 21.1042 93.3521 21.2556 94.6412 21.4575H94.5667ZM59.6865 100.549C68.5632 109.747 80.134 115.76 92.6578 117.685C80.1599 115.747 68.6167 109.734 59.7607 100.549H59.6865ZM92.4348 132.222C95.0874 132.625 97.7152 132.878 100.269 133.004C97.7896 132.878 95.1618 132.625 92.5092 132.222H92.4348ZM107.854 132.903C106.615 132.903 105.375 133.054 104.111 133.054C105.351 133.054 106.59 133.054 107.854 132.903L108.722 136.764L107.854 132.903Z" fill="url(#paint2_linear_0_767)"/>
<path style="mix-blend-mode:multiply" d="M164.353 130.681C161.572 133.686 158.517 136.415 155.23 138.833C142.711 147.849 127.889 152.969 112.565 153.571C111.053 153.571 109.516 153.697 107.979 153.697H106.492H103.269H101.533C100.492 153.697 99.4514 153.621 98.4101 153.47L96.6498 153.293C95.1376 153.142 93.6254 152.965 92.0884 152.713H91.9644L91.2208 152.587H90.6507H90.0557L89.2871 152.46H88.8903L87.9235 152.284H87.7253L86.585 152.057C81.5381 150.989 76.5685 149.572 71.7106 147.817L64.9922 163.236C69.8451 165.007 74.8158 166.424 79.8665 167.476L81.0071 167.703H81.2301L82.1722 167.88H82.5689L83.3373 168.006H83.9322H84.5024L85.2462 168.132H85.3703C86.585 168.309 87.8493 168.486 89.0144 168.612H89.9317L91.6917 168.763L94.8153 168.99H96.5509H99.7735H101.261C102.798 168.99 104.335 168.99 105.847 168.99C121.173 168.4 135.998 163.279 148.512 154.252C157.291 147.905 164.248 139.29 168.667 129.293L175.41 113.874C172.68 120.07 168.942 125.753 164.353 130.681Z" fill="url(#paint3_linear_0_767)"/>
<g style="mix-blend-mode:overlay">
<path d="M180.516 90.4285C180.417 100.87 177.676 111.109 172.558 120.158C167.293 129.155 159.96 136.716 151.189 142.19C142.438 147.67 132.72 151.356 122.581 153.042C112.456 154.741 102.132 154.801 91.9888 153.219H91.7658H91.1212L90.0554 153.042L87.9727 152.638H87.7497C66.4692 148.347 46.9235 137.708 31.5989 122.076C23.9744 114.308 17.7633 105.225 13.254 95.2488C8.77939 85.2643 6.60852 74.3697 6.90756 63.3994C6.84903 74.3276 9.24001 85.1255 13.8985 94.9712C18.4412 104.814 24.6605 113.76 32.2683 121.395C47.5515 136.744 66.9629 147.134 88.0472 151.25H88.2206L90.3529 151.654L91.6169 151.881L92.4352 152.007C102.437 153.635 112.628 153.635 122.63 152.007C132.655 150.429 142.281 146.871 150.966 141.534C155.269 138.825 159.261 135.634 162.865 132.019C173.842 121.052 180.251 106.204 180.764 90.5547L180.516 90.4285Z" fill="#E1E2E2"/>
</g>
<defs>
<linearGradient id="paint0_linear_0_767" x1="-0.00851566" y1="71.5268" x2="10.7998" y2="71.5268" gradientUnits="userSpaceOnUse">
<stop stop-color="white"/>
<stop offset="0.6" stop-color="#A7A9AC"/>
<stop offset="1" stop-color="#F5F5F5"/>
</linearGradient>
<linearGradient id="paint1_linear_0_767" x1="3.04042" y1="123.943" x2="71.7107" y2="123.943" gradientUnits="userSpaceOnUse">
<stop stop-color="white"/>
<stop offset="0.6" stop-color="#A7A9AC"/>
<stop offset="1" stop-color="#F5F5F5"/>
</linearGradient>
<linearGradient id="paint2_linear_0_767" x1="6.73374" y1="76.8521" x2="180.516" y2="76.8521" gradientUnits="userSpaceOnUse">
<stop stop-color="white"/>
<stop offset="0.6" stop-color="#A7A9AC"/>
<stop offset="1" stop-color="#F5F5F5"/>
</linearGradient>
<linearGradient id="paint3_linear_0_767" x1="64.9922" y1="141.508" x2="175.385" y2="141.508" gradientUnits="userSpaceOnUse">
<stop stop-color="white"/>
<stop offset="0.6" stop-color="#A7A9AC"/>
<stop offset="1" stop-color="#F5F5F5"/>
</linearGradient>
</defs>
</svg>
