<svg width="161" height="173" viewBox="0 0 161 173" fill="none" xmlns="http://www.w3.org/2000/svg">
<path d="M36.098 76.0875C43.3323 51.7206 66.0387 34.8586 86.7848 38.3735C91.6821 39.1732 96.3155 41.1708 100.287 44.1948C104.258 47.2187 107.449 51.1786 109.585 55.7343C114.266 66.0317 114.934 77.7535 111.452 88.5322C108.02 100.3 100.907 110.607 91.1955 117.886C86.9388 121.263 82.0638 123.744 76.8551 125.183C71.6465 126.623 66.2084 126.992 60.858 126.27C40.0651 122.779 29.027 100.264 36.098 76.0875Z" fill="#F8F8F8"/>
<path d="M4.00965 70.8394V70.5544C5.93904 64.0403 8.48686 57.7327 11.6173 51.721L28.5365 59.5347C26.1173 64.0657 24.1698 68.8415 22.7257 73.7844V74.0693C21.3408 78.7088 20.4488 83.486 20.0652 88.319L0.392334 89.9815C0.953013 83.4919 2.16518 77.0778 4.00965 70.8394V70.8394Z" fill="#F8F8F8"/>
<path d="M43.1689 15.29C53.2863 7.89899 64.9341 2.96706 77.2169 0.873306L76.68 22.6765C67.4119 24.1904 58.6207 27.8914 51.01 33.4831L43.1689 15.29Z" fill="#F8F8F8"/>
<path d="M8.30322 133.088L25.6655 119.17C29.4906 126.774 35.4428 133.055 42.7711 137.22L30.9863 157.003C21.3003 151.447 13.4173 143.135 8.30322 133.088V133.088Z" fill="#F8F8F8"/>
<path d="M104.754 27.4018L116.562 7.52408C126.265 13.1162 134.162 21.4579 139.292 31.5341L121.906 45.3796C118.062 37.7924 112.093 31.5359 104.754 27.4018V27.4018Z" fill="#F8F8F8"/>
<path d="M70.8452 141.946C80.1125 140.443 88.9045 136.75 96.5154 131.163L104.357 149.332C94.2339 156.729 82.5771 161.661 70.2852 163.748L70.8452 141.946Z" fill="#F8F8F8"/>
<path d="M127.484 76.0657L147.203 74.3557C146.636 80.9571 145.408 87.4823 143.539 93.83V93.9725L143.329 94.6612C143.329 94.8274 143.329 95.0174 143.165 95.2074C143.002 95.3974 143.049 95.5637 143.002 95.7537C142.956 95.9437 142.839 96.2286 142.769 96.4661C142.699 96.7036 142.769 96.7274 142.769 96.8461L142.465 97.7248V97.9148L142.115 98.9835C140.453 103.674 138.481 108.244 136.211 112.663L119.292 104.945C121.654 100.395 123.577 95.6225 125.033 90.6951C126.354 85.9201 127.176 81.0164 127.484 76.0657V76.0657Z" fill="#F8F8F8"/>
<path d="M116.561 7.52298L104.753 27.4013C112.106 31.5609 118.076 37.8521 121.905 45.4747L139.291 31.5337C145.941 44.7036 148.705 59.5502 147.249 74.2828L127.53 75.9928C127.149 80.9682 126.249 85.8883 124.846 90.67C123.389 95.5975 121.466 100.37 119.105 104.92L136.001 112.638C128.495 127.253 117.66 139.826 104.403 149.308L96.5619 131.139C88.951 136.726 80.159 140.419 70.8917 141.921L70.3783 163.723C63.5309 164.852 56.5495 164.852 49.7021 163.723C43.1469 162.626 36.8294 160.376 31.0328 157.074L42.8177 137.195C35.4894 133.03 29.5373 126.749 25.7122 119.146L8.34977 133.063C1.63437 119.788 -1.12349 104.806 0.415284 89.9575L20.088 88.295C20.4716 83.462 21.3635 78.6848 22.7484 74.0453C24.2179 69.0288 26.1967 64.1815 28.6526 59.5819L11.7336 51.7683C19.231 37.2493 30.0233 24.7598 43.2146 15.3366L51.0556 33.5287C58.6664 27.9372 67.4577 24.2365 76.7258 22.7227L77.2625 0.920622C84.1033 -0.193593 91.0747 -0.193593 97.9154 0.920622C104.465 1.98581 110.777 4.221 116.561 7.52298V7.52298ZM109.56 55.7345C107.424 51.1788 104.234 47.2189 100.262 44.1949C96.2911 41.1709 91.6578 39.1733 86.7605 38.3736C66.0143 34.8587 43.3078 51.7208 36.1202 75.9453C28.9325 100.17 40.0407 122.779 60.7636 126.27C66.114 126.993 71.5522 126.623 76.7609 125.184C81.9695 123.744 86.8444 121.264 91.1011 117.887C100.778 110.644 107.873 100.389 111.311 88.675C114.835 77.8578 114.184 66.0814 109.49 55.7345" fill="#D50100"/>
<path d="M132.967 21.63C135.374 24.6983 137.491 27.9901 139.292 31.462L152.663 39.9641C147.942 30.7222 140.896 22.9205 132.244 17.3552L118.872 8.85306C124.241 12.2779 129.006 16.5971 132.967 21.63V21.63Z" fill="#8A8A8A"/>
<path d="M30.9868 157.002L44.3587 165.504C50.1554 168.807 56.4729 171.057 63.0281 172.154C69.8757 173.282 76.8569 173.282 83.7045 172.154L70.3326 163.652C63.485 164.78 56.5038 164.78 49.6562 163.652C43.101 162.555 36.7835 160.305 30.9868 157.002V157.002Z" fill="#720100"/>
<path d="M147.25 74.3533L160.622 82.8555C162.077 68.1231 159.314 53.2767 152.664 40.107L139.292 31.6048C145.942 44.7745 148.705 59.6209 147.25 74.3533V74.3533Z" fill="#760100"/>
<path d="M70.332 163.748L83.7038 172.251C95.9958 170.164 107.653 165.232 117.775 157.834L104.403 149.332C94.2807 156.729 82.624 161.661 70.332 163.748Z" fill="#858585"/>
<path d="M146.759 78.7731L146.549 80.1981C146.409 81.2193 146.246 82.2405 146.059 83.2855C146.059 83.8317 145.849 84.3779 145.732 84.9242C145.546 85.9217 145.335 86.8954 145.102 87.8929C145.102 88.4391 144.845 88.9854 144.729 89.5553C144.379 90.9803 144.005 92.4052 143.585 93.8302V93.9727L143.375 94.6614C143.375 94.8277 143.375 95.0177 143.212 95.2077C143.049 95.3977 143.095 95.5639 143.048 95.7539C143.002 95.9439 142.885 96.2289 142.815 96.4664C142.745 96.7039 142.815 96.7276 142.815 96.8464L142.512 97.7251V97.9151L142.162 98.9838C140.499 103.674 138.527 108.245 136.258 112.663L149.629 121.166C151.899 116.747 153.871 112.176 155.534 107.486L155.884 106.417V106.227C155.884 105.942 156.07 105.634 156.187 105.349C156.177 105.222 156.177 105.095 156.187 104.969C156.187 104.731 156.327 104.494 156.421 104.256C156.514 104.019 156.42 103.876 156.584 103.71C156.747 103.544 156.584 103.33 156.747 103.164L156.957 102.475V102.332C157.284 101.193 157.587 100.076 157.891 98.9363C157.891 98.6276 158.007 98.3426 158.101 98.0576C158.194 97.7726 158.357 96.9414 158.474 96.3951C158.708 95.3977 158.917 94.4239 159.104 93.4265C159.221 92.8802 159.314 92.334 159.431 91.7878L159.921 88.7004L160.131 87.2754C160.318 85.8029 160.481 84.3305 160.621 82.858L147.249 74.3557C147.109 75.8282 146.946 77.3006 146.759 78.7731Z" fill="#858585"/>
<path d="M104.403 149.331L117.775 157.834C131.032 148.352 141.867 135.779 149.373 121.164L136.001 112.662C128.495 127.276 117.66 139.85 104.403 149.331V149.331Z" fill="#720100"/>
<path style="mix-blend-mode:multiply" d="M77.2165 0.873577C64.9336 2.96723 53.2858 7.89893 43.1684 15.2896L51.0094 33.4819C58.6202 27.8904 67.4115 24.1896 76.6796 22.6758V22.6758C67.4115 24.1896 58.6202 27.8904 51.0094 33.4819L43.1684 15.2896C29.9771 24.7129 19.1848 37.2025 11.6874 51.7216V51.7216C8.55701 57.7333 6.00907 64.0409 4.0797 70.5551V70.8401C2.22735 77.0776 1.00749 83.4918 0.43921 89.9823L16.4948 88.6286L0.43921 89.9823C-1.09956 104.831 1.6583 119.813 8.37369 133.088C12.4205 141.141 18.2722 148.113 25.4558 153.439C32.6393 158.765 40.9533 162.297 49.726 163.749C56.5734 164.877 63.5546 164.877 70.4021 163.749C82.694 161.662 94.3509 156.73 104.474 149.333C117.731 139.851 128.565 127.278 136.071 112.663L119.176 104.945L136.094 112.663C138.364 108.244 140.336 103.674 141.999 98.9834L142.349 97.9147V97.7246L142.652 96.8459C142.652 96.8459 142.652 96.5847 142.652 96.4659C142.652 96.3472 142.815 95.991 142.885 95.7535C142.955 95.516 143.002 95.3734 143.049 95.2072C143.095 95.0409 143.049 94.8272 143.212 94.661L143.422 93.9722V93.8297C145.291 87.4819 146.519 80.9565 147.086 74.355V74.355C148.542 59.6223 145.778 44.7756 139.128 31.6056L121.906 45.3804C118.077 37.7578 112.106 31.4665 104.754 27.307V27.307C112.106 31.4665 118.077 37.7578 121.906 45.3804L139.292 31.4394C134.162 21.3629 126.265 13.0209 116.562 7.4285C110.772 4.11559 104.451 1.87222 97.8926 0.802331C91.0405 -0.290834 84.0611 -0.266786 77.2165 0.873577V0.873577ZM82.8872 37.9468C63.2845 36.9968 42.9351 53.2178 36.2142 75.9462C42.8884 53.2416 63.2612 36.9968 82.8872 37.9468ZM22.7022 73.9988V73.7137C24.0903 69.0218 25.9272 64.4798 28.1864 60.1527C25.8809 64.5685 24.0125 69.2067 22.6089 73.9988C22.2589 75.21 21.9322 76.3737 21.6522 77.6087C22.0256 76.4212 22.4688 75.21 22.7022 73.9988ZM91.1483 117.983C100.833 110.712 107.934 100.435 111.381 88.6998V88.6998C107.945 100.402 100.859 110.647 91.195 117.888L91.1483 117.983ZM124.8 90.8373C125.51 88.4001 126.094 85.9268 126.55 83.4274C126.106 85.8939 125.538 88.3355 124.846 90.7423L124.8 90.8373ZM127.483 76.16C127.483 77.3475 127.273 78.5349 127.11 79.7699C127.273 78.5587 127.39 77.395 127.483 76.16L131.147 75.8512L127.483 76.16Z" fill="url(#paint0_linear_0_708)"/>
<defs>
<linearGradient id="paint0_linear_0_708" x1="62.0318" y1="166.354" x2="85.9724" y2="0.00446006" gradientUnits="userSpaceOnUse">
<stop stop-color="white"/>
<stop offset="0.6" stop-color="#A7A9AC"/>
<stop offset="1" stop-color="#F5F5F5"/>
</linearGradient>
</defs>
</svg>
