<svg width="74" height="74" viewBox="0 0 74 74" fill="none" xmlns="http://www.w3.org/2000/svg">
<rect width="74" height="74" rx="37" fill="#FCE247"/>
<path d="M50.8174 25.7055C50.1236 23.1973 48.2218 21.202 45.7498 20.3894C43.2775 19.5765 40.5627 20.0535 38.5155 21.6609C36.4688 23.2681 35.3615 25.792 35.5648 28.3865C35.7681 30.981 37.2553 33.302 39.5275 34.5706C40.6833 35.2257 41.9894 35.5696 43.3182 35.5689C45.7511 35.567 48.0435 34.4281 49.5151 32.4904C50.9864 30.553 51.4682 28.0389 50.8171 25.6946L50.8174 25.7055ZM43.3239 27.2909C44.0838 27.2821 44.7987 27.6504 45.2329 28.2743C45.6668 28.8981 45.7635 29.6963 45.4911 30.4059C45.2187 31.1154 44.6126 31.6437 43.8725 31.8167V32.1019C43.8725 32.4049 43.6269 32.6505 43.3239 32.6505C43.021 32.6505 42.7754 32.4049 42.7754 32.1019V31.8276C42.2726 31.7076 41.825 31.4213 41.5054 31.0149C41.1856 30.6089 41.0126 30.1064 41.0144 29.5894C41.0144 29.2865 41.2601 29.0408 41.563 29.0408C41.866 29.0408 42.1116 29.2865 42.1116 29.5894C42.1116 29.9084 42.2383 30.2143 42.4641 30.4396C42.6899 30.6648 42.9958 30.7912 43.3148 30.7907C43.6338 30.7902 43.9394 30.6629 44.1644 30.4369C44.3895 30.2108 44.5153 29.9046 44.5143 29.5856C44.5135 29.2669 44.3857 28.9612 44.1591 28.7368C43.9327 28.512 43.6263 28.3867 43.3076 28.388C42.5565 28.3819 41.8561 28.009 41.4313 27.3897C41.0065 26.7704 40.9111 25.9826 41.1754 25.2798C41.4401 24.5772 42.0312 24.0479 42.759 23.8622V23.5167C42.759 23.2138 43.0047 22.9681 43.3076 22.9681C43.6106 22.9681 43.8562 23.2138 43.8562 23.5167V23.8622C44.3565 23.982 44.802 24.267 45.1205 24.6709C45.4392 25.0751 45.612 25.575 45.6115 26.0895C45.6115 26.3925 45.3659 26.6381 45.0629 26.6381C44.76 26.6381 44.5143 26.3925 44.5143 26.0895C44.5143 25.7713 44.3882 25.4659 44.1632 25.2407C43.9382 25.0154 43.6331 24.8887 43.3149 24.8882C42.9967 24.8876 42.691 25.0135 42.4655 25.238C42.2399 25.4627 42.1127 25.7676 42.1116 26.0857C42.1106 26.4042 42.2362 26.7099 42.4604 26.9357C42.6846 27.1618 42.9891 27.2895 43.3076 27.2909L43.3239 27.2909Z" fill="#07512F"/>
<path d="M51.9862 40.1438L48.7277 44.4116C46.8636 46.8817 44.0152 48.4163 40.927 48.6137C39.8172 48.6828 38.7038 48.6625 37.5972 48.5535C36.1492 48.396 34.6848 48.5995 33.3348 49.1457L32.7533 49.3817L32.704 49.2885L28.2715 41.6469C28.1368 41.4146 27.9728 41.2006 27.7832 41.0107L29.7142 39.0138C30.6195 38.079 31.7571 37.4021 33.0101 37.0521C34.2634 36.7022 35.5872 36.6921 36.8456 37.0226L41.9418 38.3557V38.3554C42.7325 38.5585 43.358 39.163 43.5875 39.9462C43.7228 40.3775 43.6342 40.8478 43.351 41.2003C43.0682 41.5528 42.6281 41.7409 42.1778 41.7017L38.0855 40.8076C37.9401 40.7669 37.7847 40.7878 37.6553 40.8655C37.5259 40.9429 37.4341 41.0704 37.4017 41.2177C37.3693 41.3651 37.3987 41.5191 37.4836 41.6439C37.5683 41.7687 37.7006 41.8531 37.8495 41.8772L41.9419 42.7769C42.1224 42.8152 42.3061 42.8356 42.4904 42.8372C43.0602 42.8372 43.6133 42.6459 44.0609 42.2937C44.5087 41.9415 44.8248 41.4489 44.959 40.8952C44.9644 40.8497 44.9644 40.8039 44.959 40.758C45.9884 40.1425 46.9695 39.4493 47.8939 38.6846C48.7454 37.9605 49.902 37.7096 50.977 38.0152C51.1846 38.0784 51.3849 38.1631 51.5748 38.2678C51.8952 38.4467 52.1237 38.7545 52.2024 39.1131C52.2812 39.4718 52.2024 39.8471 51.9863 40.1438L51.9862 40.1438Z" fill="#07512F"/>
<path d="M31.7547 49.8482C32.0148 50.3081 32.0863 50.8507 31.9543 51.3624C31.8222 51.874 31.4971 52.3143 31.0471 52.591L27.9091 54.5001C27.8272 54.5469 27.7348 54.5732 27.6405 54.5769H27.4923C27.3504 54.537 27.2288 54.4449 27.1522 54.319L21.0796 44.0223C21.0016 43.894 20.9799 43.7392 21.019 43.5945C21.0595 43.4539 21.1543 43.3355 21.2823 43.2653L24.5737 41.4331V41.4329C25.0406 41.1792 25.5878 41.1168 26.0997 41.259C26.6116 41.4013 27.0479 41.7372 27.3166 42.1954L31.7547 49.8482Z" fill="#07512F"/>
</svg>
