<svg width="74" height="74" viewBox="0 0 74 74" fill="none" xmlns="http://www.w3.org/2000/svg">
<rect width="74" height="74" rx="37" fill="#FCE247"/>
<path d="M27.9589 43.8394L27.9634 43.8431L28.4571 44.3368L29.4189 43.3749L27.9146 41.8706L27.3261 42.4596L27.3259 42.4599C27.1199 42.6664 27.1199 43.0004 27.3259 43.207L27.9589 43.8394Z" fill="#07512F"/>
<path d="M45.2896 29.5251C44.7689 29.0041 44.0625 28.7117 43.3259 28.7117C42.5894 28.7117 41.883 29.0042 41.3623 29.5251C40.8416 30.0458 40.5488 30.7522 40.5488 31.4888C40.5488 32.2251 40.8416 32.9315 41.3623 33.4525C41.883 33.9732 42.5894 34.2657 43.3259 34.2657C44.0625 34.2657 44.7689 33.9732 45.2896 33.4525C45.8125 32.9328 46.1066 32.226 46.1066 31.4888C46.1066 30.7514 45.8124 30.0448 45.2896 29.5251Z" fill="#07512F"/>
<path d="M21.261 41.1464C21.2736 41.1716 21.2966 41.1896 21.3242 41.1957C21.3499 41.2019 21.3772 41.1954 21.3979 41.1783C22.5591 40.2671 25.4332 38.227 27.846 38.3822C27.8958 38.2035 27.9507 38.0289 28.0049 37.8523C28.0488 37.7061 28.0903 37.5585 28.1364 37.4138C28.2146 37.1671 28.2987 36.925 28.3828 36.6808C28.4241 36.5618 28.4626 36.4402 28.5052 36.3224C28.6349 35.9656 28.7704 35.6139 28.9124 35.2675C28.9231 35.241 28.9354 35.2158 28.9472 35.1896C29.0798 34.8703 29.2177 34.5553 29.3608 34.2443C29.4159 34.1256 29.4749 34.0105 29.5314 33.8929C29.6361 33.6786 29.7382 33.4643 29.8456 33.2543C29.9155 33.1212 29.9873 32.9918 30.0583 32.8606C30.1606 32.6714 30.2632 32.4821 30.3698 32.2973C30.4477 32.1625 30.5286 32.0305 30.609 31.8979C30.7137 31.7232 30.8219 31.5464 30.9323 31.3742C31.0172 31.2416 31.1048 31.1115 31.1921 30.9807C31.2585 30.8819 31.3218 30.7801 31.3893 30.6826V30.6821C30.6154 30.4169 29.8035 30.2795 28.9857 30.2747C27.4842 30.2768 26.027 30.7833 24.8481 31.7131C23.6184 32.6857 22.6688 33.9679 22.0972 35.428C21.021 38.0742 20.7244 40.1045 21.261 41.1466L21.261 41.1464Z" fill="#07512F"/>
<path d="M29.9818 46.8496L28.7319 48.0995C28.4646 48.3676 28.1016 48.5182 27.7232 48.5184C27.3447 48.5184 26.9818 48.3682 26.7141 48.1003C26.4468 47.8324 26.2968 47.4692 26.2973 47.0907C26.2941 46.7117 26.4441 46.348 26.7136 46.0814L27.9637 44.8314L27.6069 44.4749C26.3766 44.7325 25.2417 45.325 24.327 46.1873C22.4011 48.1129 22.2854 51.3189 22.2998 52.3271C23.3148 52.3482 26.5092 52.2207 28.4351 50.2946C29.2961 49.3798 29.8891 48.2463 30.1497 47.0176L29.9818 46.8496Z" fill="#07512F"/>
<path d="M44.1315 43.4258C44.0329 43.4939 43.9298 43.5579 43.8299 43.6246C43.701 43.7108 43.5722 43.7971 43.4412 43.8809C43.2666 43.9934 43.0855 44.1027 42.9052 44.2109C42.7767 44.2883 42.6489 44.3666 42.5187 44.4416C42.3261 44.5525 42.1295 44.6588 41.9329 44.7651C41.8089 44.8318 41.6886 44.9001 41.5614 44.9652C41.3391 45.0801 41.1117 45.1897 40.8843 45.299C40.7795 45.3488 40.6769 45.4037 40.5701 45.4508C39.8969 45.7624 39.2021 46.0479 38.4856 46.3074C38.3739 46.3479 38.2588 46.3846 38.1457 46.4237C37.8982 46.5102 37.6499 46.5959 37.3976 46.6758C37.2551 46.721 37.1099 46.762 36.9661 46.8054C36.788 46.8587 36.6125 46.915 36.4323 46.9653C36.5788 49.3742 34.5447 52.2547 33.6329 53.4156L33.6332 53.415C33.6174 53.4367 33.6115 53.4641 33.6176 53.4901C33.6241 53.5184 33.6431 53.5423 33.6693 53.5551C34.71 54.0914 36.7414 53.7938 39.3843 52.7173H39.3841C40.8442 52.1446 42.1264 51.1956 43.1008 49.9669C44.5459 48.1085 44.9351 45.6383 44.1315 43.4258L44.1315 43.4258Z" fill="#07512F"/>
<path d="M32.3532 47.4866L32.9422 46.8976L31.4382 45.3936L30.4761 46.3549L30.7812 46.66L30.786 46.6662L31.6067 47.4866H31.607C31.8132 47.6921 32.1467 47.6921 32.3532 47.4866L32.3532 47.4866Z" fill="#07512F"/>
<path d="M33.6956 42.1284C33.7759 42.0073 33.8191 41.8656 33.8204 41.7204C33.8191 41.6264 33.8001 41.5335 33.7636 41.447C33.7267 41.3575 33.6723 41.2766 33.6043 41.208C33.3198 40.9238 32.8591 40.9238 32.5746 41.208L28.7041 45.0778L27.207 46.5751C27.0707 46.7091 26.9943 46.8925 26.9957 47.0838C26.9914 47.38 27.1674 47.6492 27.4406 47.7642C27.7135 47.8793 28.0291 47.8172 28.2383 47.6072L29.7356 46.1099L33.6045 42.2396C33.6386 42.2059 33.6691 42.1683 33.6956 42.1284L33.6956 42.1284Z" fill="#07512F"/>
<path d="M53.2735 21.5423C52.9052 21.1689 52.3938 20.9726 51.8702 21.0031C50.3265 21.0829 48.7909 21.2774 47.2759 21.5852L53.2312 27.5404L53.2309 27.5402C53.5389 26.0252 53.7334 24.4896 53.8129 22.9456C53.8419 22.4222 53.6455 21.9114 53.2735 21.5423L53.2735 21.5423Z" fill="#07512F"/>
<path d="M46.4636 21.7607C41.9395 22.8046 36.204 25.2097 32.2207 30.7182C30.9232 32.5265 29.8879 34.5092 29.1451 36.6076C28.8834 37.3338 28.6483 38.0808 28.4399 38.8488C28.2618 39.519 28.1013 40.2173 27.958 40.9296L28.1605 41.1321L29.9128 42.8809L32.0806 40.7132L32.0811 40.7129C32.2167 40.58 32.3768 40.4745 32.5523 40.4022C32.9554 40.2361 33.4126 40.2645 33.7919 40.479C34.1715 40.6939 34.4313 41.0707 34.4969 41.5017C34.5087 41.5735 34.5167 41.6458 34.5213 41.7184C34.5159 41.9675 34.4476 42.2113 34.3222 42.4269C34.2631 42.5386 34.1878 42.6409 34.0989 42.7307L31.9311 44.8984L33.8824 46.8497C34.5912 46.7137 35.2893 46.5495 35.9667 46.3679L35.9664 46.3681C38.176 45.7888 40.2985 44.9177 42.2782 43.778C42.91 43.4081 43.5162 43.0136 44.0969 42.5946C49.6056 38.6115 52.0107 32.8759 53.0543 28.3516L46.4636 21.7607ZM46.5753 34.7365C45.5653 35.7482 44.1419 36.2325 42.7243 36.0466C41.3068 35.861 40.0565 35.0263 39.341 33.7885C38.6258 32.5507 38.527 31.0505 39.0737 29.7297C39.6207 28.4086 40.7508 27.4173 42.1319 27.0474C43.5127 26.6772 44.9872 26.9708 46.1213 27.8413C47.2554 28.7118 47.92 30.0602 47.9192 31.4901C47.9227 32.7083 47.4387 33.8772 46.5753 34.7365H46.5753Z" fill="#07512F"/>
</svg>
