<svg width="16" height="37" viewBox="0 0 16 37" fill="none" xmlns="http://www.w3.org/2000/svg">
<path d="M7.29289 36.7071C7.68342 37.0976 8.31658 37.0976 8.70711 36.7071L15.0711 30.3431C15.4616 29.9526 15.4616 29.3195 15.0711 28.9289C14.6805 28.5384 14.0474 28.5384 13.6569 28.9289L8 34.5858L2.34315 28.9289C1.95262 28.5384 1.31946 28.5384 0.928933 28.9289C0.538409 29.3195 0.538409 29.9526 0.928934 30.3431L7.29289 36.7071ZM7 4.37114e-08L7 1.8L9 1.8L9 -4.37114e-08L7 4.37114e-08ZM7 5.4L7 9L9 9L9 5.4L7 5.4ZM7 12.6L7 16.2L9 16.2L9 12.6L7 12.6ZM7 19.8L7 23.4L9 23.4L9 19.8L7 19.8ZM7 27L7 30.6L9 30.6L9 27L7 27ZM7 34.2L7 36L9 36L9 34.2L7 34.2Z" fill="#C6C6C6"/>
</svg>
