<svg width="74" height="74" viewBox="0 0 74 74" fill="none" xmlns="http://www.w3.org/2000/svg">
<rect width="74" height="74" rx="37" fill="#FCE247"/>
<path d="M43.3327 48.3765C41.6144 49.3075 39.7008 49.8197 37.7471 49.8708V53.795C40.3897 53.743 42.9802 53.0492 45.2954 51.7735L43.3327 48.3765Z" fill="#07512F"/>
<path d="M39.1889 38.6858C38.7499 38.4464 38.2809 38.2664 37.7944 38.1504V40.9932C39.0367 40.9053 39.6579 40.4028 39.6582 39.4862V39.4859C39.6644 39.1524 39.483 38.8433 39.1889 38.6858L39.1889 38.6858Z" fill="#07512F"/>
<path d="M37.7471 24.9241C39.7008 24.9752 41.6147 25.4874 43.3327 26.4187L45.294 23.0218H45.2937C42.9794 21.746 40.3895 21.0519 37.7474 21L37.7471 24.9241Z" fill="#07512F"/>
<path d="M35.2443 35.2683C35.2279 35.6245 35.3953 35.9641 35.6878 36.1683C36.0864 36.4243 36.5273 36.6078 36.9899 36.7104V33.802C36.531 33.8449 36.0925 34.0115 35.721 34.2839C35.4125 34.5158 35.2351 34.8825 35.2442 35.2682L35.2443 35.2683Z" fill="#07512F"/>
<path d="M45.8982 23.3704L43.9353 26.7703L43.9351 26.77C45.5971 27.797 46.9969 29.1965 48.0236 30.8583L51.4238 28.8954C50.05 26.6388 48.1551 24.7439 45.8982 23.3704L45.8982 23.3704Z" fill="#07512F"/>
<path d="M49.8709 37.0483H53.795C53.743 34.4054 53.0487 31.815 51.7722 29.5L48.3755 31.4626C49.3071 33.1806 49.8195 35.0945 49.871 37.0482L49.8709 37.0483Z" fill="#07512F"/>
<path d="M49.1818 37.405V37.3977V37.3905C49.1799 34.2657 47.9371 31.2697 45.7264 29.0618C43.5161 26.8533 40.519 25.6132 37.3943 25.6143C34.2698 25.6151 31.2735 26.8571 29.0642 29.067C26.8552 31.2768 25.6143 34.2736 25.6143 37.3984C25.6143 40.5232 26.8553 43.5198 29.0642 45.7298C31.2735 47.9397 34.2698 49.1817 37.3943 49.1825C40.5191 49.1836 43.5161 47.9435 45.7264 45.735C47.937 43.5268 49.1799 40.5307 49.1818 37.4063V37.405ZM31.2188 37.7468H28.3616C28.1687 37.7468 28.0126 37.5906 28.0126 37.3978C28.0126 37.2049 28.1687 37.0487 28.3616 37.0487H31.2188C31.4117 37.0487 31.5678 37.2049 31.5678 37.3978C31.5678 37.5906 31.4117 37.7468 31.2188 37.7468ZM40.4698 40.8339C40.2017 41.2273 39.8315 41.5402 39.3992 41.7389C38.8948 41.9741 38.3492 42.1067 37.7934 42.1295V43.0678C37.7963 43.1739 37.7559 43.2765 37.6811 43.352C37.6013 43.4283 37.4939 43.469 37.3836 43.4642C37.2786 43.4682 37.1765 43.4305 37.0994 43.3595C37.0219 43.2834 36.9812 43.1776 36.9871 43.0691V42.1295C36.0684 42.0754 35.1657 41.8654 34.3174 41.5081C34.2097 41.4628 34.1178 41.387 34.0527 41.29C33.8963 41.0715 33.9158 40.7728 34.0991 40.5762C34.1987 40.4669 34.3409 40.4064 34.4888 40.4109C34.5753 40.4104 34.661 40.4286 34.74 40.464C35.4493 40.7806 36.2122 40.96 36.9882 40.9935V37.9525C36.4707 37.8221 35.9644 37.6498 35.4745 37.4372C35.0754 37.2606 34.7243 36.9909 34.4507 36.6507C34.1676 36.2824 34.0224 35.8265 34.0409 35.3623C34.0374 34.9166 34.1537 34.4784 34.3776 34.0932C34.6206 33.6879 34.9674 33.3547 35.3823 33.1284C35.8771 32.8581 36.4254 32.7001 36.9881 32.6656V31.7404C36.9855 31.6324 37.0259 31.528 37.1004 31.4498C37.1735 31.3713 37.2771 31.3282 37.3843 31.3314C37.4933 31.33 37.5983 31.3729 37.6752 31.4498C37.7523 31.5266 37.7952 31.6314 37.7944 31.7404V32.6527C38.5795 32.6731 39.356 32.8201 40.0939 33.0885C40.3264 33.156 40.4802 33.3762 40.4641 33.6175C40.4641 33.759 40.4124 33.8956 40.3189 34.0014C40.2244 34.1152 40.0827 34.1787 39.9348 34.1736C39.8617 34.1688 39.7902 34.1509 39.7232 34.1206C39.1018 33.9052 38.4514 33.7847 37.7938 33.7638V36.909C38.333 37.0284 38.8612 37.1921 39.3736 37.3978C39.784 37.5679 40.1451 37.8382 40.4241 38.184C40.722 38.5809 40.8717 39.0695 40.8471 39.5651C40.8516 40.0164 40.7201 40.4586 40.4697 40.8339L40.4698 40.8339ZM43.2277 37.3978C43.2277 37.205 43.3838 37.0488 43.5767 37.0488H46.435C46.6279 37.0488 46.784 37.205 46.784 37.3978C46.784 37.5907 46.6279 37.7468 46.435 37.7468H43.5767C43.3838 37.7468 43.2277 37.5907 43.2277 37.3978Z" fill="#07512F"/>
<path d="M37.0491 24.9241V21C34.4064 21.0517 31.8163 21.7457 29.5015 23.0223L31.4627 26.4195C33.1808 25.4874 35.0949 24.975 37.0489 24.9241L37.0491 24.9241Z" fill="#07512F"/>
<path d="M23.3711 28.8959L26.7713 30.8596C27.7974 29.1979 29.197 27.798 30.8583 26.7711L28.8954 23.3706C26.639 24.7447 24.7447 26.6393 23.3712 28.8959H23.3711Z" fill="#07512F"/>
<path d="M24.9248 37.0483C24.976 35.0946 25.4881 33.181 26.4192 31.4627L23.0223 29.5012C21.7465 31.8158 21.0524 34.4059 21.0005 37.0482L24.9248 37.0483Z" fill="#07512F"/>
<path d="M26.419 43.3322C25.4877 41.6141 24.9755 39.7003 24.9246 37.7466H21C21.0517 40.389 21.7454 42.9792 23.021 45.2942L26.419 43.3322Z" fill="#07512F"/>
<path d="M37.0488 49.8705C35.0951 49.8193 33.1813 49.3071 31.4632 48.3752L29.4995 51.7728C31.8146 53.0494 34.4056 53.7431 37.0486 53.7945L37.0488 49.8705Z" fill="#07512F"/>
<path d="M28.895 51.4243L30.8584 48.0239H30.8581C29.1966 46.9972 27.7967 45.5971 26.7704 43.9353L23.3696 45.899C24.7435 48.1559 26.638 50.0505 28.895 51.4243H28.895Z" fill="#07512F"/>
<path d="M52.2095 28.8445L52.209 28.844L52.2065 28.8413L52.2095 28.8445Z" fill="#07512F"/>
<path d="M51.4249 45.9004L48.0247 43.9375V43.9373C46.9975 45.599 45.5974 46.9988 43.9351 48.0255L45.8985 51.4254V51.4252C48.1557 50.0519 50.0508 48.1571 51.4249 45.9004V45.9004Z" fill="#07512F"/>
<path d="M48.3765 43.3336L51.7742 45.2949C53.0505 42.9801 53.7445 40.3894 53.7962 37.7466H49.8721C49.821 39.7009 49.3086 41.6155 48.3765 43.3338V43.3336Z" fill="#07512F"/>
<path d="M22.5831 28.8445C22.5887 28.8364 22.5952 28.8289 22.6027 28.8225C22.5949 28.8287 22.5879 28.8359 22.5815 28.8437C22.5772 28.856 22.5737 28.8686 22.5708 28.8814C22.5735 28.8686 22.5775 28.8563 22.5831 28.8445H22.5831Z" fill="#07512F"/>
</svg>
