<svg width="74" height="74" viewBox="0 0 74 74" fill="none" xmlns="http://www.w3.org/2000/svg">
<rect width="74" height="74" rx="37" fill="#FCE247"/>
<path d="M39.0457 27.9529H33.4952C33.185 27.9531 32.8877 28.0764 32.6685 28.2957C32.4492 28.5148 32.326 28.8122 32.3257 29.1224V34.6729C32.326 34.9831 32.4492 35.2804 32.6685 35.4995C32.8876 35.7189 33.185 35.8424 33.4952 35.8426H39.0457C39.3559 35.8424 39.6532 35.7189 39.8723 35.4995C40.0917 35.2804 40.2149 34.9831 40.2152 34.6729V29.1224C40.2149 28.8122 40.0914 28.5151 39.8723 28.2957C39.653 28.0766 39.3556 27.9531 39.0457 27.9529ZM34.6151 34.4551C34.3478 34.4559 34.1064 34.2955 34.0038 34.0488C33.9012 33.8021 33.9575 33.5176 34.1463 33.3288C34.3354 33.1397 34.6196 33.0834 34.8663 33.186C35.113 33.2888 35.2735 33.5302 35.2727 33.7972C35.2729 33.9719 35.2036 34.139 35.0801 34.2625C34.9569 34.3857 34.7895 34.4551 34.6151 34.4551V34.4551ZM34.6151 30.662V30.6617C34.3475 30.6628 34.1062 30.5024 34.0033 30.2554C33.9004 30.0087 33.9567 29.7242 34.1458 29.5351C34.3346 29.346 34.6191 29.2895 34.8661 29.3921C35.113 29.4949 35.2735 29.7363 35.2727 30.0039C35.2729 30.1782 35.2036 30.3457 35.0801 30.4691C34.9569 30.5924 34.7895 30.6617 34.6151 30.6617L34.6151 30.662ZM36.2678 32.5587V32.5584C36.0007 32.5576 35.7605 32.3961 35.6592 32.1491C35.5577 31.9024 35.615 31.6185 35.8044 31.4305C35.9938 31.2425 36.278 31.187 36.5241 31.2901C36.7706 31.3933 36.9302 31.6346 36.9291 31.9014C36.9294 32.0766 36.8595 32.2443 36.7352 32.3677C36.6109 32.4912 36.4427 32.5598 36.2678 32.5584L36.2678 32.5587ZM37.9239 34.4554L37.9237 34.4551C37.6569 34.4535 37.4174 34.2917 37.3164 34.0447C37.2155 33.798 37.2733 33.5147 37.4627 33.3266C37.6521 33.1388 37.936 33.0836 38.1819 33.1865C38.428 33.2896 38.5879 33.5307 38.5869 33.7972C38.5874 33.9727 38.5172 34.1411 38.3927 34.2646C38.2681 34.3881 38.0991 34.4567 37.9237 34.4551L37.9239 34.4554ZM37.9239 30.6623L37.9237 30.6617C37.6569 30.6607 37.4169 30.4986 37.3159 30.2516C37.2149 30.0047 37.2725 29.721 37.4619 29.533C37.6515 29.3453 37.9355 29.2898 38.1816 29.3927C38.4278 29.4958 38.588 29.7369 38.5869 30.0039C38.5874 30.1794 38.5172 30.3476 38.3927 30.4713C38.2681 30.5948 38.0991 30.6636 37.9237 30.6618L37.9239 30.6623Z" fill="#07512F"/>
<path d="M44.5328 30.8892H50.0833C50.3935 30.8887 50.6905 30.7655 50.9099 30.5464C51.129 30.3272 51.2525 30.0299 51.2528 29.72V24.1695C51.2525 23.8596 51.1293 23.5623 50.9099 23.3429C50.6908 23.1238 50.3935 23.0003 50.0833 23H44.5328C44.2229 23.0003 43.9255 23.1235 43.7061 23.3429C43.487 23.5622 43.3635 23.8593 43.3633 24.1695V29.72C43.3638 30.0299 43.487 30.3272 43.7064 30.5464C43.9255 30.7657 44.2228 30.8889 44.5328 30.8892H44.5328ZM48.9621 28.1809C49.2291 28.1798 49.4705 28.3398 49.5736 28.5859C49.6767 28.8321 49.6213 29.1163 49.4332 29.3059C49.2455 29.4953 48.9618 29.5531 48.7148 29.4522C48.4676 29.3509 48.3058 29.1112 48.3044 28.8441C48.3034 28.4796 48.5975 28.1828 48.962 28.1809L48.9621 28.1809ZM47.3059 26.2842H47.3062C47.5727 26.2837 47.8138 26.4436 47.9166 26.6895C48.0195 26.9357 47.9641 27.2193 47.7763 27.4087C47.5882 27.598 47.3051 27.6556 47.0581 27.5547C46.8112 27.4539 46.6494 27.2142 46.648 26.9474C46.6475 26.7722 46.7163 26.6038 46.8401 26.4792C46.9638 26.3549 47.1318 26.2847 47.3072 26.2842L47.3059 26.2842ZM45.6532 24.3875L45.6535 24.3878C45.9197 24.3892 46.1592 24.5507 46.2605 24.7971C46.3614 25.0435 46.3044 25.3264 46.1158 25.5147C45.9272 25.7027 45.6441 25.759 45.3979 25.6572C45.1518 25.5554 44.9908 25.3157 44.9903 25.0492C44.9897 24.8732 45.0596 24.7042 45.1845 24.5799C45.3093 24.4556 45.4783 24.3865 45.6545 24.3878L45.6532 24.3875Z" fill="#07512F"/>
<path d="M38.9036 51.2063C43.1831 50.962 53.0005 43.9213 53.0992 43.85C53.1099 43.8425 53.1209 43.8352 53.1324 43.8288C53.5385 43.5987 53.7954 43.1734 53.8096 42.7068C53.8238 42.2402 53.5934 41.7998 53.2021 41.5453C52.8105 41.2911 52.3147 41.2592 51.8941 41.462L45.502 44.4124C45.1136 44.9495 44.4914 45.268 43.8287 45.2685H36.2131C36.0203 45.2685 35.8641 45.1121 35.8641 44.9192C35.8641 44.7263 36.0203 44.5702 36.2131 44.5702H43.8287C44.0949 44.5696 44.3556 44.492 44.5782 44.346C44.801 44.2003 44.9768 43.9927 45.0836 43.7487C45.0925 43.7291 45.0986 43.7082 45.1067 43.6879V43.6881C45.1286 43.6311 45.1466 43.5727 45.1605 43.5135C45.1664 43.4894 45.172 43.465 45.1766 43.4406C45.19 43.3675 45.1975 43.2936 45.1988 43.2191V43.1985C45.1985 42.8347 45.0536 42.4857 44.7962 42.2283C44.5388 41.9709 44.1901 41.826 43.8261 41.8257H39.8864C39.8002 41.8257 39.7169 41.7939 39.6526 41.736C37.8877 40.1425 35.6698 39.1635 33.7203 39.1177C31.4599 39.0625 29.4421 39.0933 28.665 39.1094L28.6653 46.8627C29.8059 47.5351 36.3954 51.3266 38.9037 51.2061L38.9036 51.2063Z" fill="#07512F"/>
<path d="M21.9913 37.4521C21.7288 37.4527 21.4768 37.5571 21.2912 37.7428C21.1053 37.9284 21.0005 38.1802 21 38.443V47.3881C21.0003 47.6509 21.105 47.9029 21.2906 48.0888C21.4765 48.2747 21.7286 48.3792 21.9914 48.3795H26.9738C27.2365 48.3792 27.4886 48.2747 27.6745 48.0888C27.8604 47.9029 27.9648 47.6509 27.9651 47.3881V38.443C27.9646 38.1802 27.8598 37.9284 27.6742 37.7428C27.4883 37.5572 27.2365 37.4527 26.9738 37.4521H21.9913Z" fill="#07512F"/>
</svg>
